<mxfile host="app.diagrams.net" modified="2022-06-25T18:18:07.505Z" agent="5.0 (X11)" etag="_rQfplcLGt_jHOBDcQNV" version="20.0.3" type="github">
  <diagram id="C5RBs43oDa-KdzZeNtuy" name="Page-1">
    <mxGraphModel dx="1422" dy="721" grid="1" gridSize="10" guides="1" tooltips="1" connect="1" arrows="1" fold="1" page="1" pageScale="1" pageWidth="827" pageHeight="1169" math="0" shadow="0">
      <root>
        <mxCell id="WIyWlLk6GJQsqaUBKTNV-0" />
        <mxCell id="WIyWlLk6GJQsqaUBKTNV-1" parent="WIyWlLk6GJQsqaUBKTNV-0" />
        <mxCell id="WIyWlLk6GJQsqaUBKTNV-2" value="" style="rounded=0;html=1;jettySize=auto;orthogonalLoop=1;fontSize=11;endArrow=block;endFill=0;endSize=8;strokeWidth=1;shadow=0;labelBackgroundColor=none;edgeStyle=orthogonalEdgeStyle;" parent="WIyWlLk6GJQsqaUBKTNV-1" source="WIyWlLk6GJQsqaUBKTNV-3" target="WIyWlLk6GJQsqaUBKTNV-6" edge="1">
          <mxGeometry relative="1" as="geometry" />
        </mxCell>
        <mxCell id="EnH8o_-yyKVqVE72roHr-92" style="edgeStyle=orthogonalEdgeStyle;rounded=0;orthogonalLoop=1;jettySize=auto;html=1;entryX=0.5;entryY=0;entryDx=0;entryDy=0;fontSize=11;" edge="1" parent="WIyWlLk6GJQsqaUBKTNV-1" source="WIyWlLk6GJQsqaUBKTNV-3" target="EnH8o_-yyKVqVE72roHr-91">
          <mxGeometry relative="1" as="geometry" />
        </mxCell>
        <mxCell id="WIyWlLk6GJQsqaUBKTNV-3" value="&lt;div style=&quot;font-size: 11px;&quot;&gt;&lt;font style=&quot;font-size: 11px;&quot;&gt;User arrives at landing page (main-page)&lt;/font&gt;&lt;/div&gt;" style="rounded=1;whiteSpace=wrap;html=1;fontSize=12;glass=0;strokeWidth=1;shadow=0;" parent="WIyWlLk6GJQsqaUBKTNV-1" vertex="1">
          <mxGeometry x="340" y="40" width="120" height="40" as="geometry" />
        </mxCell>
        <mxCell id="EnH8o_-yyKVqVE72roHr-5" value="&lt;div&gt;No&lt;/div&gt;" style="edgeStyle=orthogonalEdgeStyle;rounded=0;orthogonalLoop=1;jettySize=auto;html=1;exitX=1;exitY=0.5;exitDx=0;exitDy=0;entryX=0;entryY=0.5;entryDx=0;entryDy=0;fontSize=11;" edge="1" parent="WIyWlLk6GJQsqaUBKTNV-1" source="WIyWlLk6GJQsqaUBKTNV-6" target="EnH8o_-yyKVqVE72roHr-4">
          <mxGeometry relative="1" as="geometry" />
        </mxCell>
        <mxCell id="EnH8o_-yyKVqVE72roHr-29" style="edgeStyle=orthogonalEdgeStyle;rounded=0;orthogonalLoop=1;jettySize=auto;html=1;entryX=0.385;entryY=0;entryDx=0;entryDy=0;entryPerimeter=0;fontSize=11;" edge="1" parent="WIyWlLk6GJQsqaUBKTNV-1" source="WIyWlLk6GJQsqaUBKTNV-6" target="EnH8o_-yyKVqVE72roHr-27">
          <mxGeometry relative="1" as="geometry" />
        </mxCell>
        <mxCell id="WIyWlLk6GJQsqaUBKTNV-6" value="&lt;font style=&quot;font-size: 11px;&quot;&gt;Authenticated User?&lt;br&gt;&lt;/font&gt;" style="rhombus;whiteSpace=wrap;html=1;shadow=0;fontFamily=Helvetica;fontSize=12;align=center;strokeWidth=1;spacing=6;spacingTop=-4;" parent="WIyWlLk6GJQsqaUBKTNV-1" vertex="1">
          <mxGeometry x="350" y="170" width="100" height="80" as="geometry" />
        </mxCell>
        <mxCell id="EnH8o_-yyKVqVE72roHr-10" value="Yes" style="edgeStyle=orthogonalEdgeStyle;rounded=0;orthogonalLoop=1;jettySize=auto;html=1;exitX=0.5;exitY=1;exitDx=0;exitDy=0;entryX=0.692;entryY=0.029;entryDx=0;entryDy=0;fontSize=11;entryPerimeter=0;" edge="1" parent="WIyWlLk6GJQsqaUBKTNV-1" source="EnH8o_-yyKVqVE72roHr-4" target="EnH8o_-yyKVqVE72roHr-27">
          <mxGeometry x="-0.2889" relative="1" as="geometry">
            <mxPoint x="440" y="350" as="targetPoint" />
            <Array as="points">
              <mxPoint x="540" y="300" />
              <mxPoint x="440" y="300" />
            </Array>
            <mxPoint as="offset" />
          </mxGeometry>
        </mxCell>
        <mxCell id="EnH8o_-yyKVqVE72roHr-14" value="&lt;div&gt;No&lt;/div&gt;" style="edgeStyle=orthogonalEdgeStyle;rounded=0;orthogonalLoop=1;jettySize=auto;html=1;exitX=0.5;exitY=0;exitDx=0;exitDy=0;entryX=1;entryY=0.5;entryDx=0;entryDy=0;fontSize=11;" edge="1" parent="WIyWlLk6GJQsqaUBKTNV-1" source="EnH8o_-yyKVqVE72roHr-4" target="WIyWlLk6GJQsqaUBKTNV-3">
          <mxGeometry x="-0.3684" relative="1" as="geometry">
            <mxPoint as="offset" />
          </mxGeometry>
        </mxCell>
        <mxCell id="EnH8o_-yyKVqVE72roHr-4" value="Sign In / Sign Up?" style="rhombus;whiteSpace=wrap;html=1;fontSize=11;" vertex="1" parent="WIyWlLk6GJQsqaUBKTNV-1">
          <mxGeometry x="500" y="170" width="80" height="80" as="geometry" />
        </mxCell>
        <mxCell id="EnH8o_-yyKVqVE72roHr-19" value="&lt;div&gt;Vote on posts&lt;/div&gt;" style="edgeStyle=orthogonalEdgeStyle;rounded=0;orthogonalLoop=1;jettySize=auto;html=1;entryX=0.5;entryY=0;entryDx=0;entryDy=0;fontSize=11;" edge="1" parent="WIyWlLk6GJQsqaUBKTNV-1" target="EnH8o_-yyKVqVE72roHr-89">
          <mxGeometry x="0.5" relative="1" as="geometry">
            <mxPoint x="350" y="380" as="sourcePoint" />
            <mxPoint x="200" y="480" as="targetPoint" />
            <mxPoint as="offset" />
          </mxGeometry>
        </mxCell>
        <mxCell id="EnH8o_-yyKVqVE72roHr-22" value="Edit and update in Setting Page" style="swimlane;fontStyle=0;childLayout=stackLayout;horizontal=1;startSize=25;horizontalStack=0;resizeParent=1;resizeParentMax=0;resizeLast=0;collapsible=1;marginBottom=0;rounded=0;fontSize=11;" vertex="1" parent="WIyWlLk6GJQsqaUBKTNV-1">
          <mxGeometry x="170" y="480" width="160" height="145" as="geometry">
            <mxRectangle x="370" y="465" width="190" height="30" as="alternateBounds" />
          </mxGeometry>
        </mxCell>
        <mxCell id="EnH8o_-yyKVqVE72roHr-26" value="" style="group" vertex="1" connectable="0" parent="EnH8o_-yyKVqVE72roHr-22">
          <mxGeometry y="25" width="160" height="90" as="geometry" />
        </mxCell>
        <mxCell id="EnH8o_-yyKVqVE72roHr-23" value="Avatar" style="text;strokeColor=none;fillColor=none;align=left;verticalAlign=middle;spacingLeft=4;spacingRight=4;overflow=hidden;points=[[0,0.5],[1,0.5]];portConstraint=eastwest;rotatable=0;rounded=0;fontSize=11;" vertex="1" parent="EnH8o_-yyKVqVE72roHr-26">
          <mxGeometry width="160" height="30" as="geometry" />
        </mxCell>
        <mxCell id="EnH8o_-yyKVqVE72roHr-24" value="Username" style="text;strokeColor=none;fillColor=none;align=left;verticalAlign=middle;spacingLeft=4;spacingRight=4;overflow=hidden;points=[[0,0.5],[1,0.5]];portConstraint=eastwest;rotatable=0;rounded=0;fontSize=11;resizeWidth=1;resizeHeight=1;" vertex="1" parent="EnH8o_-yyKVqVE72roHr-26">
          <mxGeometry y="30" width="160" height="30" as="geometry" />
        </mxCell>
        <mxCell id="EnH8o_-yyKVqVE72roHr-25" value="Bio" style="text;strokeColor=none;fillColor=none;align=left;verticalAlign=middle;spacingLeft=4;spacingRight=4;overflow=hidden;points=[[0,0.5],[1,0.5]];portConstraint=eastwest;rotatable=0;rounded=0;fontSize=11;" vertex="1" parent="EnH8o_-yyKVqVE72roHr-26">
          <mxGeometry y="60" width="160" height="30" as="geometry" />
        </mxCell>
        <mxCell id="EnH8o_-yyKVqVE72roHr-33" value="Privacy" style="text;strokeColor=none;fillColor=none;align=left;verticalAlign=middle;spacingLeft=4;spacingRight=4;overflow=hidden;points=[[0,0.5],[1,0.5]];portConstraint=eastwest;rotatable=0;rounded=0;fontSize=11;" vertex="1" parent="EnH8o_-yyKVqVE72roHr-22">
          <mxGeometry y="115" width="160" height="30" as="geometry" />
        </mxCell>
        <mxCell id="EnH8o_-yyKVqVE72roHr-38" style="edgeStyle=orthogonalEdgeStyle;rounded=0;orthogonalLoop=1;jettySize=auto;html=1;fontSize=11;" edge="1" parent="WIyWlLk6GJQsqaUBKTNV-1" source="EnH8o_-yyKVqVE72roHr-27">
          <mxGeometry relative="1" as="geometry">
            <mxPoint x="470" y="60" as="targetPoint" />
            <Array as="points">
              <mxPoint x="640" y="350" />
              <mxPoint x="640" y="60" />
            </Array>
          </mxGeometry>
        </mxCell>
        <mxCell id="EnH8o_-yyKVqVE72roHr-39" value="&lt;div&gt;Log Out&lt;/div&gt;" style="edgeLabel;html=1;align=center;verticalAlign=middle;resizable=0;points=[];fontSize=11;" vertex="1" connectable="0" parent="EnH8o_-yyKVqVE72roHr-38">
          <mxGeometry x="0.2541" y="-1" relative="1" as="geometry">
            <mxPoint y="122" as="offset" />
          </mxGeometry>
        </mxCell>
        <mxCell id="EnH8o_-yyKVqVE72roHr-69" style="edgeStyle=orthogonalEdgeStyle;rounded=0;orthogonalLoop=1;jettySize=auto;html=1;exitX=0.75;exitY=1;exitDx=0;exitDy=0;entryX=0.5;entryY=0;entryDx=0;entryDy=0;fontSize=11;" edge="1" parent="WIyWlLk6GJQsqaUBKTNV-1" source="EnH8o_-yyKVqVE72roHr-27" target="EnH8o_-yyKVqVE72roHr-47">
          <mxGeometry relative="1" as="geometry">
            <Array as="points">
              <mxPoint x="373" y="400" />
            </Array>
          </mxGeometry>
        </mxCell>
        <mxCell id="EnH8o_-yyKVqVE72roHr-93" style="edgeStyle=orthogonalEdgeStyle;rounded=0;orthogonalLoop=1;jettySize=auto;html=1;exitX=0;exitY=0.5;exitDx=0;exitDy=0;entryX=0.5;entryY=1;entryDx=0;entryDy=0;fontSize=11;" edge="1" parent="WIyWlLk6GJQsqaUBKTNV-1" source="EnH8o_-yyKVqVE72roHr-27" target="EnH8o_-yyKVqVE72roHr-91">
          <mxGeometry relative="1" as="geometry" />
        </mxCell>
        <mxCell id="EnH8o_-yyKVqVE72roHr-94" value="Edit setting" style="edgeStyle=orthogonalEdgeStyle;rounded=0;orthogonalLoop=1;jettySize=auto;html=1;exitX=0;exitY=1;exitDx=0;exitDy=0;entryX=0.25;entryY=0;entryDx=0;entryDy=0;fontSize=11;" edge="1" parent="WIyWlLk6GJQsqaUBKTNV-1" source="EnH8o_-yyKVqVE72roHr-27" target="EnH8o_-yyKVqVE72roHr-22">
          <mxGeometry relative="1" as="geometry">
            <Array as="points">
              <mxPoint x="210" y="400" />
            </Array>
          </mxGeometry>
        </mxCell>
        <mxCell id="EnH8o_-yyKVqVE72roHr-95" value="&lt;div&gt;Create Post&lt;/div&gt;" style="edgeStyle=orthogonalEdgeStyle;rounded=0;orthogonalLoop=1;jettySize=auto;html=1;exitX=0.75;exitY=1;exitDx=0;exitDy=0;fontSize=11;entryX=0.25;entryY=0;entryDx=0;entryDy=0;" edge="1" parent="WIyWlLk6GJQsqaUBKTNV-1" source="EnH8o_-yyKVqVE72roHr-27" target="EnH8o_-yyKVqVE72roHr-74">
          <mxGeometry relative="1" as="geometry">
            <mxPoint x="447" y="460" as="targetPoint" />
            <Array as="points">
              <mxPoint x="453" y="400" />
            </Array>
          </mxGeometry>
        </mxCell>
        <mxCell id="EnH8o_-yyKVqVE72roHr-100" style="edgeStyle=orthogonalEdgeStyle;rounded=0;orthogonalLoop=1;jettySize=auto;html=1;exitX=1;exitY=0.75;exitDx=0;exitDy=0;entryX=0.5;entryY=0;entryDx=0;entryDy=0;fontSize=11;" edge="1" parent="WIyWlLk6GJQsqaUBKTNV-1" source="EnH8o_-yyKVqVE72roHr-27" target="EnH8o_-yyKVqVE72roHr-98">
          <mxGeometry relative="1" as="geometry" />
        </mxCell>
        <mxCell id="EnH8o_-yyKVqVE72roHr-102" style="edgeStyle=orthogonalEdgeStyle;rounded=0;orthogonalLoop=1;jettySize=auto;html=1;exitX=1;exitY=0.5;exitDx=0;exitDy=0;entryX=0.5;entryY=0;entryDx=0;entryDy=0;fontSize=11;" edge="1" parent="WIyWlLk6GJQsqaUBKTNV-1" source="EnH8o_-yyKVqVE72roHr-27" target="EnH8o_-yyKVqVE72roHr-101">
          <mxGeometry relative="1" as="geometry" />
        </mxCell>
        <mxCell id="EnH8o_-yyKVqVE72roHr-27" value="Authenticated User landing page (main-page)" style="rounded=1;whiteSpace=wrap;html=1;absoluteArcSize=1;arcSize=14;strokeWidth=2;fontSize=11;" vertex="1" parent="WIyWlLk6GJQsqaUBKTNV-1">
          <mxGeometry x="349" y="330" width="130" height="70" as="geometry" />
        </mxCell>
        <mxCell id="EnH8o_-yyKVqVE72roHr-65" style="edgeStyle=orthogonalEdgeStyle;rounded=0;orthogonalLoop=1;jettySize=auto;html=1;exitX=0;exitY=1;exitDx=0;exitDy=0;entryX=0.5;entryY=0;entryDx=0;entryDy=0;fontSize=11;" edge="1" parent="WIyWlLk6GJQsqaUBKTNV-1" source="EnH8o_-yyKVqVE72roHr-47" target="EnH8o_-yyKVqVE72roHr-79">
          <mxGeometry relative="1" as="geometry">
            <mxPoint x="301.6199999999999" y="753.845" as="targetPoint" />
          </mxGeometry>
        </mxCell>
        <mxCell id="EnH8o_-yyKVqVE72roHr-86" style="edgeStyle=orthogonalEdgeStyle;rounded=0;orthogonalLoop=1;jettySize=auto;html=1;exitX=1;exitY=1;exitDx=0;exitDy=0;entryX=0.5;entryY=0;entryDx=0;entryDy=0;fontSize=11;" edge="1" parent="WIyWlLk6GJQsqaUBKTNV-1" source="EnH8o_-yyKVqVE72roHr-47" target="EnH8o_-yyKVqVE72roHr-85">
          <mxGeometry relative="1" as="geometry" />
        </mxCell>
        <mxCell id="EnH8o_-yyKVqVE72roHr-47" value="Creator of selected post?" style="rhombus;whiteSpace=wrap;html=1;rounded=0;fontSize=11;" vertex="1" parent="WIyWlLk6GJQsqaUBKTNV-1">
          <mxGeometry x="333" y="625" width="80" height="80" as="geometry" />
        </mxCell>
        <mxCell id="EnH8o_-yyKVqVE72roHr-70" value="Open Modal Menu" style="edgeStyle=orthogonalEdgeStyle;rounded=0;orthogonalLoop=1;jettySize=auto;html=1;fontSize=11;" edge="1" parent="WIyWlLk6GJQsqaUBKTNV-1" target="EnH8o_-yyKVqVE72roHr-47">
          <mxGeometry x="0.5" y="7" relative="1" as="geometry">
            <mxPoint x="433" y="505" as="sourcePoint" />
            <mxPoint as="offset" />
          </mxGeometry>
        </mxCell>
        <mxCell id="EnH8o_-yyKVqVE72roHr-99" value="Comment" style="edgeStyle=orthogonalEdgeStyle;rounded=0;orthogonalLoop=1;jettySize=auto;html=1;exitX=1;exitY=0.5;exitDx=0;exitDy=0;entryX=0.5;entryY=0;entryDx=0;entryDy=0;fontSize=11;" edge="1" parent="WIyWlLk6GJQsqaUBKTNV-1" source="EnH8o_-yyKVqVE72roHr-74" target="EnH8o_-yyKVqVE72roHr-98">
          <mxGeometry x="0.3617" y="1" relative="1" as="geometry">
            <mxPoint as="offset" />
          </mxGeometry>
        </mxCell>
        <mxCell id="EnH8o_-yyKVqVE72roHr-74" value="create-post Page" style="rounded=1;whiteSpace=wrap;html=1;fontSize=11;" vertex="1" parent="WIyWlLk6GJQsqaUBKTNV-1">
          <mxGeometry x="433" y="485" width="80" height="50" as="geometry" />
        </mxCell>
        <mxCell id="EnH8o_-yyKVqVE72roHr-82" value="Save" style="edgeStyle=orthogonalEdgeStyle;rounded=0;orthogonalLoop=1;jettySize=auto;html=1;exitX=0;exitY=0.5;exitDx=0;exitDy=0;entryX=0.5;entryY=0;entryDx=0;entryDy=0;fontSize=11;" edge="1" parent="WIyWlLk6GJQsqaUBKTNV-1" source="EnH8o_-yyKVqVE72roHr-79" target="EnH8o_-yyKVqVE72roHr-80">
          <mxGeometry x="0.6" relative="1" as="geometry">
            <mxPoint as="offset" />
          </mxGeometry>
        </mxCell>
        <mxCell id="EnH8o_-yyKVqVE72roHr-83" value="Expand" style="edgeStyle=orthogonalEdgeStyle;rounded=0;orthogonalLoop=1;jettySize=auto;html=1;exitX=0.5;exitY=1;exitDx=0;exitDy=0;entryX=0.5;entryY=0;entryDx=0;entryDy=0;fontSize=11;" edge="1" parent="WIyWlLk6GJQsqaUBKTNV-1" source="EnH8o_-yyKVqVE72roHr-79" target="EnH8o_-yyKVqVE72roHr-81">
          <mxGeometry relative="1" as="geometry" />
        </mxCell>
        <mxCell id="EnH8o_-yyKVqVE72roHr-79" value="Modal menu" style="rhombus;whiteSpace=wrap;html=1;rounded=0;fontSize=11;" vertex="1" parent="WIyWlLk6GJQsqaUBKTNV-1">
          <mxGeometry x="263" y="750" width="80" height="80" as="geometry" />
        </mxCell>
        <mxCell id="EnH8o_-yyKVqVE72roHr-80" value="Save post" style="ellipse;whiteSpace=wrap;html=1;rounded=0;fontSize=11;" vertex="1" parent="WIyWlLk6GJQsqaUBKTNV-1">
          <mxGeometry x="180" y="890" width="66" height="50" as="geometry" />
        </mxCell>
        <mxCell id="EnH8o_-yyKVqVE72roHr-81" value="Expand Post" style="ellipse;whiteSpace=wrap;html=1;rounded=0;fontSize=11;" vertex="1" parent="WIyWlLk6GJQsqaUBKTNV-1">
          <mxGeometry x="268" y="890" width="70" height="50" as="geometry" />
        </mxCell>
        <mxCell id="EnH8o_-yyKVqVE72roHr-88" value="Edit" style="edgeStyle=orthogonalEdgeStyle;rounded=0;orthogonalLoop=1;jettySize=auto;html=1;exitX=0.5;exitY=1;exitDx=0;exitDy=0;entryX=0.5;entryY=0;entryDx=0;entryDy=0;fontSize=11;" edge="1" parent="WIyWlLk6GJQsqaUBKTNV-1" source="EnH8o_-yyKVqVE72roHr-85" target="EnH8o_-yyKVqVE72roHr-87">
          <mxGeometry relative="1" as="geometry" />
        </mxCell>
        <mxCell id="EnH8o_-yyKVqVE72roHr-85" value="Modal Menu" style="rhombus;whiteSpace=wrap;html=1;rounded=0;fontSize=11;" vertex="1" parent="WIyWlLk6GJQsqaUBKTNV-1">
          <mxGeometry x="403" y="750" width="80" height="80" as="geometry" />
        </mxCell>
        <mxCell id="EnH8o_-yyKVqVE72roHr-87" value="/post/edit/{post_id} page " style="ellipse;whiteSpace=wrap;html=1;rounded=0;fontSize=11;" vertex="1" parent="WIyWlLk6GJQsqaUBKTNV-1">
          <mxGeometry x="393" y="890" width="100" height="50" as="geometry" />
        </mxCell>
        <mxCell id="EnH8o_-yyKVqVE72roHr-89" value="Upvote/Downvote post" style="ellipse;whiteSpace=wrap;html=1;rounded=0;fontSize=11;" vertex="1" parent="WIyWlLk6GJQsqaUBKTNV-1">
          <mxGeometry x="30" y="475" width="120" height="60" as="geometry" />
        </mxCell>
        <mxCell id="EnH8o_-yyKVqVE72roHr-91" value="Modal Menu to set filter radius" style="ellipse;whiteSpace=wrap;html=1;rounded=0;fontSize=11;" vertex="1" parent="WIyWlLk6GJQsqaUBKTNV-1">
          <mxGeometry x="180" y="180" width="120" height="60" as="geometry" />
        </mxCell>
        <mxCell id="EnH8o_-yyKVqVE72roHr-98" value="Modal to show and edit comment" style="ellipse;whiteSpace=wrap;html=1;rounded=0;fontSize=11;" vertex="1" parent="WIyWlLk6GJQsqaUBKTNV-1">
          <mxGeometry x="479" y="625" width="120" height="55" as="geometry" />
        </mxCell>
        <mxCell id="EnH8o_-yyKVqVE72roHr-101" value="Direct message" style="ellipse;whiteSpace=wrap;html=1;rounded=0;fontSize=11;" vertex="1" parent="WIyWlLk6GJQsqaUBKTNV-1">
          <mxGeometry x="630" y="625" width="120" height="55" as="geometry" />
        </mxCell>
      </root>
    </mxGraphModel>
  </diagram>
</mxfile>
